<svg xmlns="http://www.w3.org/2000/svg" viewBox="0 0 260 60" fill="none">
  <g transform="translate(8 14) scale(0.9)">
    <path d="M27 20.5c-.2-1-.8-1.4-1.5-1.4l-18.8-.2c-.2 0-.4-.1-.4-.3 0-.1 0-.3.2-.4.2-.2.4-.3.7-.3l19-.2c2.2-.1 4.5-1.9 5.3-4.1l1-2.7c.1-.2.1-.3 0-.5C31 5 25.8 1 19.7 1 14.2 1 9.4 4.2 7.2 8.8c-1.3-1-3-1.5-4.8-1.2C.5 8 -.8 9.8-.9 11.8c0 .6 0 1.2.2 1.8C-4 13.8-6 17.2-6 21c0 .3 0 .6 0 .9.1.2.2.4.5.4h31.8c.3 0 .5-.2.6-.4l.4-1.4z" transform="translate(12 5)" fill="#333"/>
  </g>
  <text x="55" y="38" font-family="system-ui, -apple-system, sans-serif" font-size="18" font-weight="600" fill="#333">Cloudflare</text>
</svg>
